<svg xmlns="http://www.w3.org/2000/svg" xmlns:xlink="http://www.w3.org/1999/xlink" xmlns:fi="http://pattern.flaticon.com/" x="0" y="0" width="700" height="350" viewBox="0 0 700 350"><rect x="0px" y="0px" width="100%" height="100%" opacity="1" fill="#4caf50"/><defs><g transform="matrix(0.078125 0 0 0.078125 242.5 67.5)" id="L1_116"><path d="m331 385.928v126.072h-75l-15.001-10-14.999 10h-75v-126.072z" id="XMLID_352_" fill="#9cd6f4"/><path d="m241 385.928v112.072l14.999 14h75.001v-126.072c-11.007 0-80.336 0-90 0z" id="XMLID_1272_" fill="#7fa6fb"/><path d="m151 126.072v-126.072h75l14.999 10 15.001-10h75v126.072c-39.173 0-140.543 0-180 0z" id="XMLID_351_" fill="#9cd6f4"/><path d="m331 126.072v-126.072h-75.001l-14.999 15v111.072z" id="XMLID_1259_" fill="#7fa6fb"/><path d="m391 241h45v30h-45z" id="XMLID_1270_" fill="#4d5788"/><path d="m226 452h30v60h-30z" id="XMLID_1269_" fill="#7fa6fb"/><path d="m241 452h15v60h-15z" id="XMLID_350_" fill="#6780eb"/><path d="m226 0h30v60h-30z" id="XMLID_1268_" fill="#7fa6fb"/><path d="m241 0h15v60h-15z" id="XMLID_353_" fill="#6780eb"/><circle cx="241" cy="256" r="165" id="XMLID_1273_" fill="#eef4ff"/><path d="m406 256c0-90.981-74.019-165-165-165v330c90.981 0 165-74.019 165-165z" id="XMLID_1054_" fill="#d9e6fc"/><path d="m296 271h-70v-105h30v75h40z" id="XMLID_1271_" fill="#dd517b"/><path d="m296 241h-40v-75h-15v105h55z" id="XMLID_355_" fill="#b53e67"/></g><g transform="matrix(0.09765625 0 0 0.09765625 62.5 237.5)" id="L1_117"><path d="m438.032 504.539 25.936-15.078-190.617-327.861 25.617-44.061-25.936-15.078-17.032 29.295-17.032-29.295-25.936 15.078 25.617 44.061-190.617 327.861 25.936 15.078z" id="XMLID_62_" fill="#f5de66"/><path d="m463.968 489.461-190.617-327.861 25.617-44.061-25.936-15.078-17.032 29.295v372.783h182.032z" id="XMLID_22_" fill="#edbd40"/><path d="m421.222 443.5h79.555v29.999h-79.555z" transform="matrix(0.251 -0.968 0.968 0.251 -98.66 789.444)" id="XMLID_2208_" fill="#7e5454"/><path d="m36 418.723h29.999v79.555h-29.999z" transform="matrix(0.968 -0.251 0.251 0.968 -113.628 27.547)" id="XMLID_2207_" fill="#8c665f"/><path d="m384.8 54.685-28-10.77c10.103-26.267 35.804-43.915 63.952-43.915 37.771 0 68.5 30.729 68.5 68.5 0 38.065-30.73 69.033-68.502 69.033l-27.25-19.533z" id="XMLID_6_" fill="#bed9fd"/><g fill="#d9e6fc"><path d="m338.936 107.533h173.064v30h-173.064z" id="XMLID_2201_"/><path d="m0 34.301h133.897v30h-133.897z" id="XMLID_2200_"/><path d="m101.948 94h66.949v30h-66.949z" id="XMLID_2199_"/><path d="m363.909 137.533h-31.87v-30h31.87c11.919 0 21.617-9.697 21.617-21.616s-9.697-21.616-21.617-21.616h-86.561v-30h86.561c28.461 0 51.617 23.155 51.617 51.616s-23.156 51.616-51.617 51.616z" id="XMLID_2198_"/></g><path d="m385.568 512h-261.628l132.06-229.535z" id="XMLID_2205_" fill="#edbd40"/><path d="m256 282.465v229.535h129.568z" id="XMLID_12_" fill="#e48a3c"/><path d="m0 482h512v30h-512z" id="XMLID_2211_" fill="#8c665f"/><path d="m256.124 482h255.876v30h-255.876z" id="XMLID_5_" fill="#7e5454"/></g><g transform="matrix(0.17578125 0 0 0.17578125 217.5 217.5)" id="L1_118"><path d="m390.483 326.098-28.967 7.805 13.769 51.097h-238.57l13.769-51.098-28.967-7.805-50.094 185.903h369.154zm-261.852 88.902h254.738l18.054 67h-290.846z" fill="#4d5788"/><path d="m390.483 326.098-28.966 7.804 13.768 51.098-119.231.01v30l127.315-.01 18.054 67h-145.369v30h184.523z" fill="#313a6b"/><path d="m406.448 345h-300.896c-15.604 0-30.573-6.621-41.07-18.165-10.497-11.545-15.669-27.074-14.19-42.607l1.355-14.229 24.354-31.634-18.642-28.361 15.216-159.756c2.729-28.646 26.486-50.248 55.261-50.248h256.328c28.775 0 52.532 21.602 55.261 50.248l15.216 159.756-7.521 26.018 13.203 33.646 1.387 14.56c1.478 15.533-3.693 31.062-14.19 42.607-10.498 11.544-25.468 18.165-41.072 18.165z" fill="#9cd6f4"/><path d="m447.519 326.835c10.497-11.545 15.669-27.074 14.19-42.607l-1.356-14.234-13.289-34.538 7.576-25.451-15.215-159.757c-2.729-28.646-26.485-50.248-55.261-50.248h-128.164v345h150.448c15.604 0 30.574-6.621 41.071-18.165z" fill="#7fa6fb"/><path d="m196 225h120v30h-120z" id="XMLID_2433_" fill="#eef4ff"/><path d="m256 225h60v30h-60z" id="XMLID_2730_" fill="#d9e6fc"/><path d="m391 210c-16.568 0-30 13.432-30 30s13.432 30 30 30h69.353l-5.714-60c-13.352 0-50.338 0-63.639 0z" id="XMLID_2572_" fill="#edbd40"/><path d="m121 270c16.568 0 30-13.432 30-30s-13.432-30-30-30c-14.854 0-49.012 0-63.64 0l-5.714 60z" id="XMLID_2441_" fill="#f5de66"/><path d="m127.836 30h256.328c13.224 0 24.142 9.928 25.396 23.092l9.229 96.908h-325.578l9.229-96.908c1.254-13.164 12.172-23.092 25.396-23.092z" fill="#eef4ff"/><path d="m409.56 53.092c-1.254-13.164-12.172-23.092-25.396-23.092h-128.164v120h162.789z" fill="#d9e6fc"/></g><g transform="matrix(0.078125 0 0 0.078125 67.5 67.5)" id="L1_119"><path d="m0 0h512v512h-512z" id="XMLID_135_" fill="#eef4ff"/><path d="m256 0h256v512h-256z" id="XMLID_2279_" fill="#d9e6fc"/><path d="m100.091 346h-100.091v166h166v-100.091c-27.183-15.76-50.15-38.727-65.909-65.909z" id="XMLID_1286_" fill="#abdf77"/><path d="m346 411.909v100.091h166v-166h-100.091c-15.759 27.182-38.726 50.149-65.909 65.909z" id="XMLID_1298_" fill="#80be43"/><path d="m166 100.091v-100.091h-166v166h100.091c15.759-27.182 38.726-50.149 65.909-65.909z" id="XMLID_1300_" fill="#abdf77"/><path d="m346 0v100.091c27.183 15.759 50.15 38.727 65.909 65.909h100.091v-166z" id="XMLID_1893_" fill="#80be43"/><path d="m324.172 389.651-8.172 4.178v118.171h30v-100.091c27.183-15.759 50.15-38.727 65.909-65.909h100.091v-30h-118.171c-2.358 3.356-18.96 47.734-69.657 73.651z" id="XMLID_1894_" fill="#313a6b"/><path d="m187.828 389.651c-50.816-25.978-67.291-70.286-69.656-73.651h-118.172v30h100.091c15.759 27.182 38.726 50.149 65.909 65.909v100.091h30v-118.171z" id="XMLID_1895_" fill="#4d5788"/><path d="m187.828 122.349 8.172-4.178v-118.171h-30v100.091c-27.183 15.759-50.15 38.727-65.909 65.909h-100.091v30h118.171c2.358-3.356 18.96-47.734 69.657-73.651z" id="XMLID_1897_" fill="#4d5788"/><path d="m346 100.091v-100.091h-30v118.171c3.356 2.358 47.735 18.96 73.651 69.656l4.178 8.172h118.171v-30h-100.091c-15.759-27.181-38.726-50.148-65.909-65.908z" id="XMLID_1898_" fill="#313a6b"/><path d="m436 241h76v30h-76z" id="XMLID_2288_" fill="#313a6b"/><path d="m346 241h60v30h-60z" id="XMLID_2287_" fill="#313a6b"/><g fill="#4d5788"><path d="m106 241h60v30h-60z" id="XMLID_2286_"/><path d="m0 241h76v30h-76z" id="XMLID_2285_"/><path d="m241 0h30v76h-30z" id="XMLID_2284_"/><path d="m241 106h30v60h-30z" id="XMLID_2283_"/><path d="m241 346h30v60h-30z" id="XMLID_2282_"/><path d="m241 436h30v76h-30z" id="XMLID_2281_"/></g><path d="m256 0h15v76h-15z" id="XMLID_1927_" fill="#313a6b"/><path d="m256 106h15v60h-15z" id="XMLID_1287_" fill="#313a6b"/><path d="m256 346h15v60h-15z" id="XMLID_1258_" fill="#313a6b"/><path d="m256 436h15v76h-15z" id="XMLID_133_" fill="#313a6b"/><circle cx="256" cy="256" r="60" id="XMLID_2290_" fill="#abdf77"/><path d="m316 256c0-33.084-26.916-60-60-60v120c33.084 0 60-26.916 60-60z" id="XMLID_1827_" fill="#80be43"/></g><g transform="matrix(0.07807376235723495 0 0 0.07807376235723495 155 330)" id="L1_120"><path d="m256 .168c-141.159 0-256 114.393-256 255v42.849c14.265-12.355 32.855-19.849 53.208-19.849.359 0 .713.023 1.071.027.353-.005.7-.027 1.054-.027 27.125 0 50.979 13.972 64.782 35.105.409.59.827 1.244 1.221 1.845 13.819-46.947 26.201-42.95 74.664-42.95 74.314 0 35.398 12.024 60.336 41.499 0-74.748 127-47.172 135 .897.02.115 61.5-94.395 121-16.048-14.186-80.506-72.953-298.348-256.336-298.348z" fill="#f5de66"/><path d="m459.127 278.666c20.354 0 38.944 7.493 53.209 19.849v-42.849c0-140.607-114.841-255-256-255v313c0-63.165 134.25-49.165 134.25-16.512l.75 17.408c14.52-22.208 39.277-35.896 67.791-35.896z" fill="#edbd40"/><path d="m226.336 512.168c-24.813 0-45-20.187-45-45v-30h30v30c0 8.271 6.729 15 15 15s15-6.729 15-15v-222h30v222c0 24.813-20.187 45-45 45z" id="XMLID_480_" fill="#667197"/><path d="m271.336 467.168v-222h-15v255.505c9.199-8.245 15-20.209 15-33.505z" id="XMLID_1785_" fill="#4d5788"/><path d="m346.336 360.168h30v60h-30z" id="XMLID_410_" fill="#bed9fd"/><path d="m406.336 397.668h30v97.5h-30z" id="XMLID_409_" fill="#bed9fd"/><path d="m121.336 360.168h30v60h-30z" id="XMLID_242_" fill="#d9e6fc"/><path d="m61.336 397.668h30v97.5h-30z" id="XMLID_241_" fill="#d9e6fc"/><path d="m189.159 278.168c27.91 0 52.529 14.064 67.177 35.486 0-27.116 0-298.616 0-313.486-75.701 0-135 112.009-135 255v59.95c14.563-21.962 39.496-36.95 67.823-36.95z" fill="#edbd40"/><path d="m323.549 278.168c28.303 0 53.219 14.464 67.787 36.395v-59.395c0-142.991-59.299-255-135-255v313.537c14.644-21.451 39.281-35.537 67.213-35.537z" fill="#e48a3c"/></g><g transform="matrix(0.13206017156295854 -0.03538541632261026 0.03538541632261026 0.13206017156295854 132.1339295012944 150.25126265847084)" id="L1_121"><path d="m371 0h-230c-30.327 0-55 24.673-55 55v402c0 30.327 24.673 55 55 55h230c30.327 0 55-24.673 55-55v-402c0-30.327-24.673-55-55-55z" id="XMLID_411_" fill="#667197"/><path d="m426 457v-402c0-30.327-24.673-55-55-55h-115.167v512h115.167c30.327 0 55-24.673 55-55z" id="XMLID_2180_" fill="#4d5788"/><path d="m396 351.667v-296.667c0-13.785-11.215-25-25-25h-230c-13.785 0-25 11.215-25 25v296.667z" id="XMLID_2333_" fill="#eef4ff"/><path d="m396 351.667v-296.667c0-13.785-11.215-25-25-25h-115.167v321.667z" id="XMLID_1766_" fill="#d9e6fc"/><path d="m396 435c0-7.09 0-118.266 0-120.67-22.573-13.451-48.148-23.528-75.509-29.712l.009-.041c-.103-.022-6.96-1.469-10.189-2.075l-.014.073c-23.938-4.27-47.773-5.328-70.648-3.172-12.708.013-25.221.949-37.396 2.833l-.129.319-.024-.129c-31.36 5.839-60.637 16.728-86.101 31.902v120.672z" id="XMLID_1764_" fill="#abdf77"/><path d="m396 435c0-7.09 0-118.266 0-120.67-22.573-13.451-48.148-23.528-75.509-29.712l.009-.041c-.103-.022-6.96-1.469-10.189-2.075l-.014.073c-18.345-3.272-36.627-4.651-54.465-4.149v156.574z" id="XMLID_1639_" fill="#80be43"/><path d="m256 135c-49.942 0-90.73 40.496-89.998 90.221 1.1 74.792 78.097 129.75 81.374 132.052l8.457 5.943 8.564-5.787c3.287-2.221 80.502-55.269 81.6-132.214.713-49.717-40.05-90.215-89.997-90.215zm0 120c-16.542 0-30-13.458-30-30s13.458-30 30-30 30 13.458 30 30-13.458 30-30 30z" id="XMLID_1716_" fill="#dd517b"/><path d="m345.998 225.214c.704-49.156-39.422-90.21-90.165-90.21v60c16.532-.145 30.167 13.361 30.167 29.996 0 16.608-13.61 30.141-30.167 29.996v108.22l8.564-5.787c3.288-2.221 80.502-55.269 81.601-132.215z" id="XMLID_1784_" fill="#b53e67"/><path d="m116 457c0 13.785 11.215 25 25 25h230c13.785 0 25-11.215 25-25v-50h-280z" id="XMLID_1781_" fill="#f5de66"/><path d="m396 457v-50h-140.167v75h115.167c13.785 0 25-11.215 25-25z" id="XMLID_1198_" fill="#edbd40"/><path d="m301 75h-90l-18.75-75h127.583z" id="XMLID_1887_" fill="#667197"/><path d="m319.833 0h-64v75h45.167z" id="XMLID_2223_" fill="#4d5788"/></g><g transform="matrix(0.0390625 0 0 0.0390625 252.5 340)" id="L1_122"><path d="m345 136h30v55h-30z" fill="#313a6b"/><path d="m135 136h30v55h-30z" fill="#313a6b"/><path d="m0 451h512v-164h-512z" id="XMLID_2033_" fill="#f5de66"/><path d="m255.006 287v164h256.994v-164z" id="XMLID_245_" fill="#edbd40"/><path d="m150 16h150v135h-150z" id="XMLID_1453_" fill="#9cd6f4"/><path d="m256.006 16h43.994v135h-43.994z" id="XMLID_1576_" fill="#7fa6fb"/><path d="m300 61h60v90h-60z" id="XMLID_1572_" fill="#edbd40"/><path d="m421.5 181c-3.965 0-325.242 0-331 0-49.902 0-90.5 40.598-90.5 90.5v44.5h512v-44.5c0-49.902-40.598-90.5-90.5-90.5z" id="XMLID_2250_" fill="#eef4ff"/><path d="m150 181h105v135h-105z" id="XMLID_1725_" fill="#d9e6fc"/><path d="m255 181h105v135h-105z" id="XMLID_1726_" fill="#bed9fd"/><path d="m421.5 181h-61.5v135h152v-44.5c0-49.902-40.598-90.5-90.5-90.5z" id="XMLID_1727_" fill="#7fa6fb"/><circle cx="120" cy="436" r="60" id="XMLID_1598_" fill="#667197"/><circle cx="120" cy="436" r="30" id="XMLID_1599_" fill="#4d5788"/><circle cx="390" cy="436" r="60" id="XMLID_1595_" fill="#4d5788"/><circle cx="390" cy="436" r="30" id="XMLID_1596_" fill="#313a6b"/><path d="m210 361h30v30h-30z" id="XMLID_1570_" fill="#eef4ff"/><path d="m270 361h30v30h-30z" id="XMLID_1569_" fill="#eef4ff"/><path d="m420 151h-330v-60h30v30h300z" id="XMLID_2169_" fill="#667197"/><path d="m256 121h164v30h-164z" id="XMLID_2171_" fill="#4d5788"/></g><g transform="matrix(0.13671875 0 0 0.13671875 315 140)" id="L1_123"><path d="m421 502-165 10h-165v-302h163.109c67.391 0 65.112-89.953 2.102-89.953-21.221 0-40.414 13.213-45.685 33.691l-2.898 11.262h-116.628v-15c0-82.71 67.29-150 150-150h15l165 150z" id="XMLID_1226_" fill="#eef4ff"/><path d="m421 150c0-82.71-67.29-150-150-150h-15v120.043c38.194 1.591 57.48 47.948 30.658 76.032-8.139 8.522-18.966 13.402-30.658 13.879v302.046h165z" id="XMLID_1288_" fill="#d9e6fc"/><path d="m319.64 297.36c-35.09-35.09-92.188-35.091-127.279 0s-35.091 92.188 0 127.279c35.092 35.092 92.19 35.089 127.279 0 35.09-35.09 35.09-92.188 0-127.279zm-106.067 21.213c19.736-19.735 49.906-22.817 72.904-9.264l-82.168 82.168c-13.556-22.999-10.468-53.171 9.264-72.904zm84.854 84.854c-19.733 19.733-49.904 22.82-72.904 9.264l82.168-82.168c13.556 22.999 10.468 53.171-9.264 72.904z" fill="#dd517b"/><path d="m256 271.042v29.986c10.554 0 21.11 2.761 30.477 8.281l-30.477 30.478v42.426l51.751-51.751c22.886 38.053-3.892 90.51-51.751 90.51v29.985c23.047 0 46.094-8.772 63.64-26.318 56.742-56.742 16.005-153.597-63.64-153.597z" fill="#b53e67"/></g><g transform="matrix(0.0390625 0 0 0.0390625 77.5 340)" id="L1_124"><path d="m450 91h-120v-15c0-16.542-13.458-30-30-30s-30 13.458-30 30v15h-60v-30h31.898c6.678-25.85 30.195-45 58.102-45s51.424 19.15 58.102 45h91.898z" id="XMLID_2328_" fill="#d9e6fc"/><path d="m450 419.666h30v76.334h-30z" id="XMLID_2314_" fill="#4d5788"/><path d="m405 376h107v60h-107z" id="XMLID_2344_" fill="#667197"/><path d="m0 166v105l10 15-10 15v150h292.5l117.5-10 10-132.5-10-132.5-117.5-10z" id="XMLID_146_" fill="#9cd6f4"/><path d="m292.5 166v285h127.5v-285z" id="XMLID_116_" fill="#7fa6fb"/><circle cx="120" cy="436" r="60" id="XMLID_2338_" fill="#4d5788"/><circle cx="120" cy="436" r="30" id="XMLID_2339_" fill="#313a6b"/><path d="m168.333 271h71.667v30h-71.667z" id="XMLID_2330_" fill="#7fa6fb"/><path d="m0 271h89.5v30h-89.5z" id="XMLID_2329_" fill="#7fa6fb"/><g fill="#d9e6fc"><path d="m120 106h30v30h-30z" id="XMLID_2326_"/><path d="m60 76h30v30h-30z" id="XMLID_2320_"/><path d="m120 31h30v30h-30z" id="XMLID_2315_"/></g><path d="m240 241h105v180h-105z" id="XMLID_2340_" fill="#667197"/><path d="m292.5 241h52.5v180h-52.5z" id="XMLID_27_" fill="#4d5788"/><path d="m75 241h105v75h-105z" id="XMLID_2313_" fill="#667197"/></g><g transform="matrix(0.16978767656943816 0.045494470821537604 -0.045494470821537604 0.16978767656943816 318.17990601565293 294.88658135012025)" id="L1_125"><path d="m75.006 285h-19.333c-30.695 0-55.666-24.972-55.666-55.667v-34.333h30v34.333c-.001 14.153 11.513 25.667 25.666 25.667h19.334v30z" id="XMLID_443_" fill="#abdf77"/><path d="m377.006 0h30v45h-30z" id="XMLID_458_" fill="#f5de66"/><path d="m377.006 195h30v45h-30z" id="XMLID_457_" fill="#f5de66"/><g fill="#edbd40"><path d="m392.006 0h15v45h-15z" id="XMLID_1016_"/><path d="m392.006 195h15v45h-15z" id="XMLID_1013_"/><path d="m438.449 36.057h44.999v30h-44.999z" transform="matrix(0.707 -0.707 0.707 0.707 98.906 340.894)" id="XMLID_456_"/></g><path d="m300.563 173.943h45v30h-45z" transform="matrix(0.707 -0.707 0.707 0.707 -38.98 283.78)" id="XMLID_455_" fill="#f5de66"/><path d="m308.063 28.557h30v45h-30z" transform="matrix(0.707 -0.707 0.707 0.707 58.522 243.397)" id="XMLID_454_" fill="#f5de66"/><path d="m445.949 166.443h30v44.999h-30z" transform="matrix(0.707 -0.707 0.707 0.707 1.406 381.28)" id="XMLID_453_" fill="#edbd40"/><path d="m272.006 105h45v30h-45z" id="XMLID_452_" fill="#f5de66"/><path d="m467.006 105h45v30h-45z" id="XMLID_451_" fill="#edbd40"/><path d="m.017 60h105v30h-105z" id="XMLID_450_" fill="#d9e6fc"/><path d="m90.006 0h120v30h-120z" id="XMLID_449_" fill="#d9e6fc"/><path d="m105.006 135c-24.813 0-45 20.187-45 45v215c0 24.813 20.187 45 45 45s45-20.187 45-45c0-23.87 0-191.682 0-215 0-24.813-20.187-45-45-45z" id="XMLID_587_" fill="#abdf77"/><path d="m150.006 395c0-23.87 0-191.682 0-215 0-24.813-20.187-45-45-45v305c24.813 0 45-20.187 45-45z" id="XMLID_1221_" fill="#80be43"/><path d="m502.006 502-246 10h-256v-85c0-28.673 23.327-52 52-52h55.502c12.811 0 25.33-4.141 35.249-11.661 30.848-23.387 81.064-23.964 113.249-4.259 2.344 1.435 4.591 4.978 6.729 6.626 26.109 20.139 62.744 20.412 77.716-7.821 28.014-52.825 99.44-65.157 143.584-20.726 16.87 16.978 27.953 53.051 27.953 53.051z" id="XMLID_447_" fill="#f5e9c7"/><path d="m420.686 300.002c-33.71-.231-64.439 18.098-80.235 47.882-15.339 28.924-45.594 27.087-45.694 27.115-19.961 0-30.372-10.775-38.751-15.898v152.899h256c0-1.609.002 16.343-.018-121.79-2.389-48.91-42.348-89.844-91.302-90.208z" id="XMLID_623_" fill="#e0d0a7"/><path d="m154.34 315h-19.333v-30h19.333c14.152 0 25.667-11.514 25.667-25.667v-49.333h30v49.333c-.001 30.695-24.973 55.667-55.667 55.667z" id="XMLID_444_" fill="#80be43"/><path d="m392.006 210c-49.626 0-90-40.374-90-90s40.374-90 90-90 90 90 90 90-40.374 90-90 90z" id="XMLID_467_" fill="#f5de66"/><path d="m482.006 120c0-49.626-40.374-90-90-90v180c49.626 0 90-40.374 90-90z" id="XMLID_621_" fill="#edbd40"/></g></defs><g fi:class="KUsePattern"><pattern id="pattern_L1_116" width="350" height="350" patternUnits="userSpaceOnUse"><use xlink:href="#L1_116" x="-350" y="-350"/><use xlink:href="#L1_116" x="0" y="-350"/><use xlink:href="#L1_116" x="350" y="-350"/><use xlink:href="#L1_116" x="-350" y="0"/><use xlink:href="#L1_116" x="0" y="0"/><use xlink:href="#L1_116" x="350" y="0"/><use xlink:href="#L1_116" x="-350" y="350"/><use xlink:href="#L1_116" x="0" y="350"/><use xlink:href="#L1_116" x="350" y="350"/></pattern><rect x="0" y="0" width="100%" height="100%" fill="url(#pattern_L1_116)"/></g><g fi:class="KUsePattern"><pattern id="pattern_L1_117" width="350" height="350" patternUnits="userSpaceOnUse"><use xlink:href="#L1_117" x="-350" y="-350"/><use xlink:href="#L1_117" x="0" y="-350"/><use xlink:href="#L1_117" x="350" y="-350"/><use xlink:href="#L1_117" x="-350" y="0"/><use xlink:href="#L1_117" x="0" y="0"/><use xlink:href="#L1_117" x="350" y="0"/><use xlink:href="#L1_117" x="-350" y="350"/><use xlink:href="#L1_117" x="0" y="350"/><use xlink:href="#L1_117" x="350" y="350"/></pattern><rect x="0" y="0" width="100%" height="100%" fill="url(#pattern_L1_117)"/></g><g fi:class="KUsePattern"><pattern id="pattern_L1_118" width="350" height="350" patternUnits="userSpaceOnUse"><use xlink:href="#L1_118" x="-350" y="-350"/><use xlink:href="#L1_118" x="0" y="-350"/><use xlink:href="#L1_118" x="350" y="-350"/><use xlink:href="#L1_118" x="-350" y="0"/><use xlink:href="#L1_118" x="0" y="0"/><use xlink:href="#L1_118" x="350" y="0"/><use xlink:href="#L1_118" x="-350" y="350"/><use xlink:href="#L1_118" x="0" y="350"/><use xlink:href="#L1_118" x="350" y="350"/></pattern><rect x="0" y="0" width="100%" height="100%" fill="url(#pattern_L1_118)"/></g><g fi:class="KUsePattern"><pattern id="pattern_L1_119" width="350" height="350" patternUnits="userSpaceOnUse"><use xlink:href="#L1_119" x="-350" y="-350"/><use xlink:href="#L1_119" x="0" y="-350"/><use xlink:href="#L1_119" x="350" y="-350"/><use xlink:href="#L1_119" x="-350" y="0"/><use xlink:href="#L1_119" x="0" y="0"/><use xlink:href="#L1_119" x="350" y="0"/><use xlink:href="#L1_119" x="-350" y="350"/><use xlink:href="#L1_119" x="0" y="350"/><use xlink:href="#L1_119" x="350" y="350"/></pattern><rect x="0" y="0" width="100%" height="100%" fill="url(#pattern_L1_119)"/></g><g fi:class="KUsePattern"><pattern id="pattern_L1_120" width="350" height="350" patternUnits="userSpaceOnUse"><use xlink:href="#L1_120" x="-350" y="-350"/><use xlink:href="#L1_120" x="0" y="-350"/><use xlink:href="#L1_120" x="350" y="-350"/><use xlink:href="#L1_120" x="-350" y="0"/><use xlink:href="#L1_120" x="0" y="0"/><use xlink:href="#L1_120" x="350" y="0"/><use xlink:href="#L1_120" x="-350" y="350"/><use xlink:href="#L1_120" x="0" y="350"/><use xlink:href="#L1_120" x="350" y="350"/></pattern><rect x="0" y="0" width="100%" height="100%" fill="url(#pattern_L1_120)"/></g><g fi:class="KUsePattern"><pattern id="pattern_L1_121" width="350" height="350" patternUnits="userSpaceOnUse"><use xlink:href="#L1_121" x="-350" y="-350"/><use xlink:href="#L1_121" x="0" y="-350"/><use xlink:href="#L1_121" x="350" y="-350"/><use xlink:href="#L1_121" x="-350" y="0"/><use xlink:href="#L1_121" x="0" y="0"/><use xlink:href="#L1_121" x="350" y="0"/><use xlink:href="#L1_121" x="-350" y="350"/><use xlink:href="#L1_121" x="0" y="350"/><use xlink:href="#L1_121" x="350" y="350"/></pattern><rect x="0" y="0" width="100%" height="100%" fill="url(#pattern_L1_121)"/></g><g fi:class="KUsePattern"><pattern id="pattern_L1_122" width="350" height="350" patternUnits="userSpaceOnUse"><use xlink:href="#L1_122" x="-350" y="-350"/><use xlink:href="#L1_122" x="0" y="-350"/><use xlink:href="#L1_122" x="350" y="-350"/><use xlink:href="#L1_122" x="-350" y="0"/><use xlink:href="#L1_122" x="0" y="0"/><use xlink:href="#L1_122" x="350" y="0"/><use xlink:href="#L1_122" x="-350" y="350"/><use xlink:href="#L1_122" x="0" y="350"/><use xlink:href="#L1_122" x="350" y="350"/></pattern><rect x="0" y="0" width="100%" height="100%" fill="url(#pattern_L1_122)"/></g><g fi:class="KUsePattern"><pattern id="pattern_L1_123" width="350" height="350" patternUnits="userSpaceOnUse"><use xlink:href="#L1_123" x="-350" y="-350"/><use xlink:href="#L1_123" x="0" y="-350"/><use xlink:href="#L1_123" x="350" y="-350"/><use xlink:href="#L1_123" x="-350" y="0"/><use xlink:href="#L1_123" x="0" y="0"/><use xlink:href="#L1_123" x="350" y="0"/><use xlink:href="#L1_123" x="-350" y="350"/><use xlink:href="#L1_123" x="0" y="350"/><use xlink:href="#L1_123" x="350" y="350"/></pattern><rect x="0" y="0" width="100%" height="100%" fill="url(#pattern_L1_123)"/></g><g fi:class="KUsePattern"><pattern id="pattern_L1_124" width="350" height="350" patternUnits="userSpaceOnUse"><use xlink:href="#L1_124" x="-350" y="-350"/><use xlink:href="#L1_124" x="0" y="-350"/><use xlink:href="#L1_124" x="350" y="-350"/><use xlink:href="#L1_124" x="-350" y="0"/><use xlink:href="#L1_124" x="0" y="0"/><use xlink:href="#L1_124" x="350" y="0"/><use xlink:href="#L1_124" x="-350" y="350"/><use xlink:href="#L1_124" x="0" y="350"/><use xlink:href="#L1_124" x="350" y="350"/></pattern><rect x="0" y="0" width="100%" height="100%" fill="url(#pattern_L1_124)"/></g><g fi:class="KUsePattern"><pattern id="pattern_L1_125" width="350" height="350" patternUnits="userSpaceOnUse"><use xlink:href="#L1_125" x="-350" y="-350"/><use xlink:href="#L1_125" x="0" y="-350"/><use xlink:href="#L1_125" x="350" y="-350"/><use xlink:href="#L1_125" x="-350" y="0"/><use xlink:href="#L1_125" x="0" y="0"/><use xlink:href="#L1_125" x="350" y="0"/><use xlink:href="#L1_125" x="-350" y="350"/><use xlink:href="#L1_125" x="0" y="350"/><use xlink:href="#L1_125" x="350" y="350"/></pattern><rect x="0" y="0" width="100%" height="100%" fill="url(#pattern_L1_125)"/></g></svg>