<svg xmlns="http://www.w3.org/2000/svg" xmlns:xlink="http://www.w3.org/1999/xlink" xmlns:fi="http://pattern.flaticon.com/" x="0" y="0" width="700" height="350" viewBox="0 0 700 350"><rect x="0px" y="0px" width="100%" height="100%" opacity="1" fill="#ffffff"/><defs><g transform="matrix(0.13671875 0 0 0.13671875 315 315)" id="L1_46"><g><g><path d="m114 192h246v-128h-246a2 2 0 0 0 -2 2v124a2 2 0 0 0 2 2zm206-112h16a8 8 0 0 1 8 8v16h-16v-8h-8zm0 80h8v-8h16v16a8 8 0 0 1 -8 8h-16zm-192-72a8 8 0 0 1 8-8h16v16h-8v8h-16zm0 64h16v8h8v16h-16a8 8 0 0 1 -8-8z" fill="#34b9f5"/><path d="m266.584 264 9.6-24h-40.368l9.6 24z" fill="#34b9f5"/><path d="m304 32h-4.227a48.265 48.265 0 0 1 -35.773 16h40z" fill="#34b9f5"/><path d="m112 468a12.013 12.013 0 0 0 12 12h8.29l83.71-98.931v-53.069l-104 138.667z" fill="#34b9f5"/><path d="m212.227 32h-4.227v16h40a48.265 48.265 0 0 1 -35.773-16z" fill="#34b9f5"/><path d="m273.754 208h-35.508l-4 16h43.508z" fill="#34b9f5"/><path d="m296 381.069 83.71 98.931h8.29a12.013 12.013 0 0 0 12-12v-1.333l-104-138.667z" fill="#34b9f5"/><path d="m398 64h-22v128h22a2 2 0 0 0 2-2v-124a2 2 0 0 0 -2-2z" fill="#34b9f5"/><path d="m278 280h-44a2 2 0 0 0 -2 2v21.032a37.8 37.8 0 0 1 22-7.032h4a37.8 37.8 0 0 1 22 7.032v-21.032a2 2 0 0 0 -2-2z" fill="#34b9f5"/></g><path d="m258 312h-4a22.025 22.025 0 0 0 -22 22v20a22.025 22.025 0 0 0 22 22h4a22.025 22.025 0 0 0 22-22v-20a22.025 22.025 0 0 0 -22-22zm6 40h-16v-16h16z" fill="#34b9f5"/></g><path d="m258 392h-4a37.8 37.8 0 0 1 -22-7.032v69.032a2 2 0 0 0 2 2h14v8h16v-8h14a2 2 0 0 0 2-2v-69.032a37.8 37.8 0 0 1 -22 7.032z" fill="#34b9f5"/></g><g transform="matrix(0.09765625 0 0 0.09765625 150 325)" id="L1_47"><g><path d="m376 424a8.009 8.009 0 0 0 8-8v-72a8 8 0 0 0 -16 0v72a8.009 8.009 0 0 0 8 8z" fill="#ec4a81"/><path d="m344.445 113.381 111.555 33.467v-2.848a112.127 112.127 0 0 0 -112-112h-4a52.059 52.059 0 0 0 -52 52v37.4a68 68 0 0 1 56.445-8.019z" fill="#ec4a81"/><path d="m432.9 195.748a8 8 0 0 0 -2.166 15.7l33.266 9.414v-16.628l-28.916-8.181a8.058 8.058 0 0 0 -2.184-.305z" fill="#ec4a81"/><path d="m339.847 128.707a52 52 0 0 0 -47.426 9.2l-11.811 9.448 13.49 87.658 4.575-2.745a68.44 68.44 0 0 1 59.625-5.068l105.7 41.1v-30.81l-37.627-10.645a24 24 0 1 1 13.066-46.187l24.561 6.948v-21.653z" fill="#ec4a81"/><path d="m306.9 245.988-1.474.884 17.436 185.982a51.777 51.777 0 0 0 51.776 47.146h.988a57.28 57.28 0 0 0 56.427-48.939l21.385-149.7-100.938-39.248a52.344 52.344 0 0 0 -45.6 3.875zm69.1 74.012a24.028 24.028 0 0 1 24 24v72a24 24 0 0 1 -48 0v-72a24.028 24.028 0 0 1 24-24z" fill="#ec4a81"/></g><g><path d="m86.077 207.655a8 8 0 0 0 -9.161-11.6l-28.916 8.179v16.628l33.271-9.413a7.949 7.949 0 0 0 4.806-3.794z" fill="#ec4a81"/><path d="m136 336a8.009 8.009 0 0 0 -8 8v72a8 8 0 0 0 16 0v-72a8.009 8.009 0 0 0 -8-8z" fill="#ec4a81"/><path d="m224 121.4v-37.4a52.059 52.059 0 0 0 -52-52h-4a111.156 111.156 0 0 0 -89.425 44.556l-9.806 15.458a112.238 112.238 0 0 0 -12.769 51.986v2.848l111.555-33.467a68.009 68.009 0 0 1 56.445 8.019z" fill="#ec4a81"/><path d="m219.579 137.908a52 52 0 0 0 -47.426-9.2l-124.153 37.245v21.653l24.561-6.948a24 24 0 0 1 13.066 46.187l-37.627 10.645v30.816l105.7-41.1a68.456 68.456 0 0 1 59.632 5.067l4.575 2.745 13.486-87.656z" fill="#ec4a81"/><path d="m159.5 242.113-100.938 39.252 21.385 149.7a57.28 57.28 0 0 0 56.427 48.935h.988a51.777 51.777 0 0 0 51.773-47.146l17.436-185.982-1.474-.884a52.347 52.347 0 0 0 -45.597-3.875zm.5 173.887a24 24 0 0 1 -48 0v-72a24 24 0 0 1 48 0z" fill="#ec4a81"/></g></g><g transform="matrix(0.09765625 0 0 0.09765625 62.5 150)" id="L1_48"><g><path d="m186.066 368a56.288 56.288 0 0 0 26.791 20.63 90.823 90.823 0 0 1 -8.805-20.63z" fill="#4caf50"/><path d="m199.646 336.27a118.4 118.4 0 0 1 1.113-16.27h-22.431a56.147 56.147 0 0 0 0 32h22.357a118.484 118.484 0 0 1 -1.039-15.73z" fill="#4caf50"/><path d="m186.066 304h18.146a90.142 90.142 0 0 1 9.055-20.778 56.287 56.287 0 0 0 -27.201 20.778z" fill="#4caf50"/><path d="m231.9 388.008a66.131 66.131 0 0 0 10.982-20.008h-21.975a66.111 66.111 0 0 0 10.993 20.008z" fill="#4caf50"/><path d="m300 72h-140v80h152v-68a12.013 12.013 0 0 0 -12-12zm-28 16h8v16h-8zm-16 0h8v16h-8zm-80 0h64v16h-64zm32 48h-32v-16h32zm88 0h-72v-16h72zm0-32h-8v-16h8z" fill="#4caf50"/><path d="m231.9 284.532a65.749 65.749 0 0 0 -10.8 19.468h21.587a65.769 65.769 0 0 0 -10.787-19.468z" fill="#4caf50"/><path d="m332 168h-212v312h212a12.013 12.013 0 0 0 12-12v-288a12.013 12.013 0 0 0 -12-12zm-148 24h96v16h-96zm80 32v16h-64v-16zm-80 216h-16v-16h16zm80 0h-64v-16h64zm32 0h-16v-16h16zm-64-32a72 72 0 1 1 72-72 72.081 72.081 0 0 1 -72 72z" fill="#4caf50"/><path d="m264.143 336.27a118.484 118.484 0 0 1 -1.043 15.73h22.568a56.147 56.147 0 0 0 0-32h-22.638a118.238 118.238 0 0 1 1.113 16.27z" fill="#4caf50"/><path d="m328 152h4a28.032 28.032 0 0 1 28 28v276h20a12.013 12.013 0 0 0 12-12v-228h-16v-16h16v-16h-16v-16h16v-16h-16v-16h16v-24h-64z" fill="#4caf50"/><path d="m216.964 320a101.138 101.138 0 0 0 -.088 32h30.037a101.177 101.177 0 0 0 -.087-32z" fill="#4caf50"/><path d="m380 32h-164v24h84a28.032 28.032 0 0 1 28 28v12h64v-52a12.013 12.013 0 0 0 -12-12zm-12 48h-16v-32h16z" fill="#4caf50"/><path d="m250.875 388.727a56.289 56.289 0 0 0 27.059-20.727h-18.2a90.793 90.793 0 0 1 -8.859 20.727z" fill="#4caf50"/><path d="m277.934 304a56.281 56.281 0 0 0 -27.47-20.872 90.045 90.045 0 0 1 9.113 20.872z" fill="#4caf50"/></g><path d="m131.314 144a12.022 12.022 0 0 0 -11.314 8v8h24v-16z" fill="#4caf50"/></g><g transform="matrix(0.09765625 0 0 0.09765625 237.5 150)" id="L1_49"><path d="m320 404v-4h-28a12.013 12.013 0 0 0 -12 12v4h28a12.013 12.013 0 0 0 12-12z" fill="#af51bf"/><path d="m164.193 96-12.234-30.579-10.359 31.062a37.527 37.527 0 0 1 6-.483z" fill="#af51bf"/><path d="m144 164a28.032 28.032 0 0 1 28-28h168a28.032 28.032 0 0 1 28 28v124h31.305l-12.986-155.827a22.127 22.127 0 0 0 -21.919-20.173h-216.8a22.127 22.127 0 0 0 -21.923 20.173l-12.977 155.827h31.3z" fill="#af51bf"/><path d="m230.425 88a11.983 11.983 0 0 0 -11.314 8h73.806a11.986 11.986 0 0 0 -11.317-8z" fill="#af51bf"/><path d="m181.427 96h20.82l1.609-4.838a27.963 27.963 0 0 1 26.569-19.162h51.175a27.969 27.969 0 0 1 26.551 19.112l1.641 4.888h20.831l24.508-61.258a2 2 0 0 0 -1.859-2.742h-29.092a2.013 2.013 0 0 0 -1.415.585l-21.077 21.072a8 8 0 0 1 -5.656 2.343h-80.014a8 8 0 0 1 -5.657-2.343l-21.075-21.071a1.989 1.989 0 0 0 -1.416-.586h-29.093a2 2 0 0 0 -1.858 2.742z" fill="#af51bf"/><path d="m160 248v188a12.013 12.013 0 0 0 12 12h168a12.013 12.013 0 0 0 12-12v-188h-144v24h-16v-24zm104 164a28.032 28.032 0 0 1 28-28h36a8 8 0 0 1 8 8v12a28.032 28.032 0 0 1 -28 28h-36a8 8 0 0 1 -8-8z" fill="#af51bf"/><path d="m412.417 445.343-9.112-109.343h-35.305v100a28.032 28.032 0 0 1 -28 28h-168a28.032 28.032 0 0 1 -28-28v-100h-35.3l-9.117 109.343a32 32 0 0 0 31.889 34.657h249.056a32 32 0 0 0 31.889-34.657z" fill="#af51bf"/><path d="m144 304h-32.638l-1.334 16h33.972z" fill="#af51bf"/><path d="m352 164a12.013 12.013 0 0 0 -12-12h-168a12.013 12.013 0 0 0 -12 12v68h192zm-16 44h-32v-16h32z" fill="#af51bf"/><path d="m368 320h33.972l-1.334-16h-32.638z" fill="#af51bf"/><path d="m364.4 96a37.527 37.527 0 0 1 6 .483l-10.337-30.994-12.207 30.511z" fill="#af51bf"/></g></defs><g fi:class="KUsePattern"><pattern id="pattern_L1_46" width="350" height="350" patternUnits="userSpaceOnUse"><use xlink:href="#L1_46" x="-350" y="-350"/><use xlink:href="#L1_46" x="0" y="-350"/><use xlink:href="#L1_46" x="350" y="-350"/><use xlink:href="#L1_46" x="-350" y="0"/><use xlink:href="#L1_46" x="0" y="0"/><use xlink:href="#L1_46" x="350" y="0"/><use xlink:href="#L1_46" x="-350" y="350"/><use xlink:href="#L1_46" x="0" y="350"/><use xlink:href="#L1_46" x="350" y="350"/></pattern><rect x="0" y="0" width="100%" height="100%" fill="url(#pattern_L1_46)"/></g><g fi:class="KUsePattern"><pattern id="pattern_L1_47" width="350" height="350" patternUnits="userSpaceOnUse"><use xlink:href="#L1_47" x="-350" y="-350"/><use xlink:href="#L1_47" x="0" y="-350"/><use xlink:href="#L1_47" x="350" y="-350"/><use xlink:href="#L1_47" x="-350" y="0"/><use xlink:href="#L1_47" x="0" y="0"/><use xlink:href="#L1_47" x="350" y="0"/><use xlink:href="#L1_47" x="-350" y="350"/><use xlink:href="#L1_47" x="0" y="350"/><use xlink:href="#L1_47" x="350" y="350"/></pattern><rect x="0" y="0" width="100%" height="100%" fill="url(#pattern_L1_47)"/></g><g fi:class="KUsePattern"><pattern id="pattern_L1_48" width="350" height="350" patternUnits="userSpaceOnUse"><use xlink:href="#L1_48" x="-350" y="-350"/><use xlink:href="#L1_48" x="0" y="-350"/><use xlink:href="#L1_48" x="350" y="-350"/><use xlink:href="#L1_48" x="-350" y="0"/><use xlink:href="#L1_48" x="0" y="0"/><use xlink:href="#L1_48" x="350" y="0"/><use xlink:href="#L1_48" x="-350" y="350"/><use xlink:href="#L1_48" x="0" y="350"/><use xlink:href="#L1_48" x="350" y="350"/></pattern><rect x="0" y="0" width="100%" height="100%" fill="url(#pattern_L1_48)"/></g><g fi:class="KUsePattern"><pattern id="pattern_L1_49" width="350" height="350" patternUnits="userSpaceOnUse"><use xlink:href="#L1_49" x="-350" y="-350"/><use xlink:href="#L1_49" x="0" y="-350"/><use xlink:href="#L1_49" x="350" y="-350"/><use xlink:href="#L1_49" x="-350" y="0"/><use xlink:href="#L1_49" x="0" y="0"/><use xlink:href="#L1_49" x="350" y="0"/><use xlink:href="#L1_49" x="-350" y="350"/><use xlink:href="#L1_49" x="0" y="350"/><use xlink:href="#L1_49" x="350" y="350"/></pattern><rect x="0" y="0" width="100%" height="100%" fill="url(#pattern_L1_49)"/></g></svg>