<svg id="Capa_1" enable-background="new 0 0 512 512" height="512" viewBox="0 0 512 512" width="512" xmlns="http://www.w3.org/2000/svg"><g><g><g><g><g><g><g><g><circle cx="256" cy="256" fill="#7584f2" r="256"/></g></g></g></g></g></g></g><path d="m512 256c0-33.876-6.58-66.216-18.532-95.81l-67.431-67.431-337.679 316.996 90.379 90.379c24.379 7.708 50.335 11.866 77.263 11.866 141.385 0 256-114.615 256-256z" fill="#4855b7"/><g><path d="m426.637 409.755h-225.686l-44.241-5.865-37.597 5.865h-30.755v-260.132h338.279z" fill="#fff"/></g><g><path d="m306.573 149.623h120.064v260.131h-120.064z" fill="#e9edf5"/></g><g><g><path d="m238.4 203.032h154.486v140.747h-154.486z" fill="#a3d4ff"/></g><g><path d="m306.573 203.032h86.313v140.747h-86.313z" fill="#65b1fc"/></g><g><path d="m119.113 201.931h81.837v207.824h-81.837z" fill="#a3d4ff"/></g></g><g><path d="m401.908 174.443h-291.816c-19.912 0-34.67-23.281-30.258-47.731l6.128-33.953h340.074l6.128 33.953c4.414 24.449-10.344 47.731-30.256 47.731z" fill="#ff6c52"/></g><g><path d="m432.165 126.712-6.128-33.953h-119.464v81.684h95.334c19.913 0 34.671-23.282 30.258-47.731z" fill="#ff432e"/></g><g><path d="m263.27 231.381v57.134c0 16.89 13.692 30.582 30.582 30.582h15.556v-87.717h-46.138z" fill="#fff"/><path d="m351.672 237.819c-.472 0-.942.011-1.409.033v-6.471h-43.689v87.717h13.106c13.583 0 25.098-8.856 29.086-21.108.956.092 1.926.139 2.905.139 16.627 0 30.155-13.527 30.155-30.155.001-16.627-13.527-30.155-30.154-30.155zm0 41.024c-.478 0-.948-.031-1.409-.091v-21.554c.461-.06.932-.091 1.409-.091 5.993 0 10.868 4.876 10.868 10.868s-4.875 10.868-10.868 10.868z" fill="#e9edf5"/></g></g></svg>