<svg id="Capa_1" enable-background="new 0 0 512 512" height="512" viewBox="0 0 512 512" width="512" xmlns="http://www.w3.org/2000/svg"><g><g><g><g><g><g><g><g><g><g><g><g><g><g><g><g><g><g><g><g><g><g><g><g><circle cx="256" cy="256" fill="#a3d4ff" r="256"/></g></g></g></g></g></g></g></g></g></g></g></g></g></g></g></g></g></g></g></g></g></g></g><g><g><g><g><g><g><g><g><g><g><g><g><g><g><g><g><g><g><g><g><g><g><g><circle cx="256" cy="256" fill="#a3d4ff" r="256"/></g></g></g></g></g></g></g></g></g></g></g></g></g></g></g></g></g></g></g></g></g></g></g><path d="m512 256c0-6.507-.243-12.958-.72-19.343l-185.799-185.798-48.106 90.856-90.857-90.857-46.626 46.626 72.871 72.871-79.515 8.779 135.293 135.293-110.826 138.253 55.813 55.813c13.814 2.306 28.003 3.507 42.472 3.507 141.385 0 256-114.615 256-256z" fill="#65b1fc"/><g><path d="m354.285 452.68h-196.57l18.052-238.479h160.466z" fill="#ff6c52"/></g><g><path d="m336.233 214.201h-80.233v238.479h98.285z" fill="#ff432e"/></g><g><path d="m165.104 165.688h181.791v90.809h-181.791z" fill="#ff583e"/></g><g><path d="m256 165.688h90.896v90.809h-90.896z" fill="#f92814"/></g><g><path d="m133.248 179.134 122.752-92.077 122.752 92.089z" fill="#707789"/></g><g><path d="m256 87.078v92.062l122.752.006z" fill="#555a66"/></g><g><path d="m241 347.775h30v69.067h-30z" fill="#707789"/></g><g><path d="m256 347.775h15v69.067h-15z" fill="#555a66"/></g><g><path d="m241 289.133h30v33.882h-30z" fill="#707789"/></g><g><path d="m256 289.133h15v33.882h-15z" fill="#555a66"/></g><g><g><path d="m288.565 347.775h30v69.067h-30z" fill="#555a66"/></g><g><path d="m288.565 289.133h30v33.882h-30z" fill="#555a66"/></g><g><path d="m193.435 347.775h30v69.067h-30z" fill="#707789"/></g><g><path d="m193.435 289.133h30v33.882h-30z" fill="#707789"/></g></g><g><path d="m372.107 236.448-83.534-69.482 83.534-69.482-46.626-46.626-69.481 83.535-69.482-83.534-46.626 46.626 83.534 69.482-83.534 69.482 46.626 46.626 69.482-83.535 69.482 83.534z" fill="#fff"/></g><g><path d="m372.107 236.448-83.534-69.482 83.534-69.481-46.626-46.626-69.481 83.5v65.215l69.482 83.5z" fill="#e9edf5"/></g></g></svg>