<svg id="Capa_1" enable-background="new 0 0 512 512" height="512" viewBox="0 0 512 512" width="512" xmlns="http://www.w3.org/2000/svg"><g><g><g><g><g><g><g><g><circle cx="256" cy="256" fill="#ff6c52" r="256"/></g></g></g></g></g></g></g><path d="m508.097 300.779-78.302-78.302-18.085 20.407-111.567-111.567-3.8 8.419-56.627-56.627-69.224 3.265-77.85 309.687 110.469 110.469c17.066 3.585 34.757 5.47 52.889 5.47 126.109 0 230.92-91.187 252.097-211.221z" fill="#f92814"/><g><path d="m92.641 131.317h207.502v264.744h-207.502z" fill="#ffce00"/></g><g><path d="m195.88 131.317h104.264v264.744h-104.264z" fill="#fdba12"/></g><g><path d="m170.492 222.476h259.303v173.584h-259.303z" fill="#fff"/></g><g><path d="m300.143 222.477h129.651v173.584h-129.651z" fill="#e9edf5"/></g><g><path d="m248.957 159.938h-30v-47.105c0-12.442-10.123-22.565-22.565-22.565s-22.565 10.123-22.565 22.565v47.105h-30v-47.105c0-28.984 23.581-52.565 52.565-52.565s52.565 23.581 52.565 52.565z" fill="#fff"/></g><g><path d="m196.392 60.268c-.172 0-.341.011-.513.013v30c.171-.004.341-.013.513-.013 12.442 0 22.565 10.123 22.565 22.565v47.105h30v-47.105c0-28.985-23.581-52.565-52.565-52.565z" fill="#e9edf5"/></g><g><path d="m352.708 270.844h-30v-61.416c0-12.442-10.123-22.565-22.565-22.565s-22.565 10.123-22.565 22.565v61.416h-30v-61.416c0-28.984 23.581-52.565 52.565-52.565s52.565 23.581 52.565 52.565z" fill="#555a66"/></g><g><path d="m300.143 156.863c-.218 0 .217.014 0 .017v30c.216-.006-.218-.017 0-.017 12.442 0 22.565 10.123 22.565 22.565v61.416h30v-61.416c0-28.984-23.581-52.565-52.565-52.565z" fill="#333940"/></g><g><path d="m225.863 305.928h148.561v40.398h-148.561z" fill="#cdd2e1"/></g><g><path d="m300.143 305.928h74.28v40.398h-74.28z" fill="#afb4c8"/></g></g></svg>